<svg width="45" height="45" viewBox="0 0 45 45" fill="none" xmlns="http://www.w3.org/2000/svg">
<path d="M23.443 10.1952C27.072 10.1952 30.3311 11.7724 32.5713 14.2778H41.0924C38.0078 7.61998 31.2662 3 23.443 3C15.6232 3 8.88168 7.61998 5.79356 14.2778H14.3147C16.5584 11.7724 19.8175 10.1952 23.443 10.1952Z" fill="white"/>
<path d="M23.443 34.6943C19.814 34.6943 16.5584 33.1171 14.3147 30.6117H5.79356C8.87819 37.2695 15.6197 41.8895 23.443 41.8895C31.2628 41.8895 38.0078 37.2695 41.0924 30.6117H32.5713C30.3311 33.1171 27.072 34.6943 23.443 34.6943Z" fill="white"/>
<path d="M35.1569 18.8454H4.33498C4.11515 20.0109 4 21.2147 4 22.443C4 23.6713 4.11515 24.8751 4.33498 26.0406H35.1569C35.5059 24.903 35.6943 23.6957 35.6943 22.443C35.6943 21.1903 35.5059 19.9829 35.1569 18.8454Z" fill="white"/>
</svg>
