<svg width="45" height="45" viewBox="0 0 45 45" fill="none" xmlns="http://www.w3.org/2000/svg">
<path fill-rule="evenodd" clip-rule="evenodd" d="M5.2 27C5.5 27.3 6.1 27.7 7.1 28.3V31.9L19.1 38.9V37.2C22.7 38.8 25.5 39.8 27.5 40.1H27.6L22.5 43L5.2 32.9V27ZM22.5 3L39.8 13V28.2C41.5 29.4 42.9 30.9 44.1 32.7C43.8 32.6 43.2 32.3 42.3 31.9C43.4 34.4 43.6 38.2 39.5 39.1C29.7 41.4 16.9 35 12.1 31.8C14.6 32.8 16.9 33.7 19.1 34.4V32.8C16.8 32 12.8 30.4 8.5 27.5C4.5 24.8 1.4 21.5 1 20.9C1.7 21.1 2.2 21.2 2.7 21.2C1.2 18.5 2.8 15.6 5.3 14.5V13L22.5 3ZM22.5 5.1L7.1 14V21.2C6.4 20.6 5.4 18.9 5.2 17.9C4.5 18.4 4.4 19.4 4.8 20.5C6.6 25.1 14.2 30 19 32.6V20.4H11.5L8.9 14.5H36.1L33.5 20.5H26V36.2C28.2 36.6 30.3 36.9 32.2 37C40.5 37.4 41.1 35 39.7 33L34.9 35.8C33.6 35.9 32.4 35.9 31.3 35.7L37.9 31.9V14L22.5 5.1Z" fill="white"/>
</svg>
