<svg width="45" height="45" viewBox="0 0 45 45" fill="none" xmlns="http://www.w3.org/2000/svg">
<path d="M0.142437 3.04628C0.419445 2.87651 0.59596 3.21965 0.745387 3.4002C10.3603 15.7648 19.9865 28.1205 29.6005 40.4851C29.798 40.6612 29.6486 41.0375 29.3821 40.9971C24.7787 41.0025 20.1744 40.9989 15.571 40.9989C15.2022 41.0034 14.8492 40.8148 14.6229 40.5192C9.84645 34.385 5.07265 28.248 0.296232 22.1129C0.0935011 21.8649 -0.0113596 21.5443 0.00174806 21.2218C0.00174806 15.295 0.00349537 9.36738 0 3.44062C0.00262153 3.30049 -0.0026211 3.11904 0.142437 3.04628Z" fill="white"/>
<path d="M44.6105 3.01742C44.8071 2.94107 45.0238 3.12791 44.995 3.3399C45.002 9.26935 44.9941 15.1988 44.9985 21.1283C45.0116 21.4642 44.94 21.8118 44.7276 22.0759C43.2762 23.9425 41.823 25.8082 40.3715 27.6739C40.1295 27.9973 39.7336 28.176 39.3378 28.1554C34.7649 28.1509 30.1912 28.1581 25.6184 28.1518C25.3484 28.1949 25.1946 27.8203 25.3939 27.6398C31.7353 19.4844 38.082 11.3318 44.427 3.17821C44.4751 3.10815 44.5362 3.05425 44.6105 3.01742Z" fill="white"/>
</svg>
